<?xml version="1.0" encoding="UTF-8"?>
<svg id="Layer_1" data-name="Layer 1" xmlns="http://www.w3.org/2000/svg" version="1.1" viewBox="0 0 1080 1080">
  <defs>
    <style>
      .cls-1 {
        fill: #000;
      }

      .cls-1, .cls-2 {
        stroke-width: 0px;
      }

      .cls-2 {
        fill: #fff;
      }
    </style>
  </defs>
  <rect class="cls-1" width="1080" height="1080"/>
  <g>
    <polygon class="cls-2" points="540.1 482.3 640 424.5 440.1 309.1 540.1 251.4 740 366.8 840 309.1 540.1 135.9 140.1 366.9 140 713.2 239.9 770.9 240.1 424.6 340.1 366.9 540.1 482.3"/>
    <polygon class="cls-2" points="540 597.8 340.1 482.2 340.1 597.8 539.9 713.1 939.9 482.3 940 366.8 540 597.8"/>
    <polygon class="cls-2" points="539.9 828.6 539.9 828.6 539.8 828.6 340 713.1 339.9 828.6 539.8 944 539.9 944.1 939.8 713.1 939.9 597.7 539.9 828.6 539.9 828.6"/>
  </g>
</svg>