<?xml version="1.0" encoding="UTF-8"?>
<svg xmlns="http://www.w3.org/2000/svg" version="1.1" viewBox="0 0 2016 580">
  <defs>
    <style>
      .cls-1 {
        fill: #f0f2f8;
      }
    </style>
  </defs>
  <!-- Generator: Adobe Illustrator 28.7.1, SVG Export Plug-In . SVG Version: 1.2.0 Build 142)  -->
  <g>
    <g id="Logo">
      <g id="wordmark">
        <g>
          <path class="cls-1" d="M49.9,188.2h155.9v43.9h-92.5v35.6h79.1v41.2h-79.1v83.4h-63.4v-204.1h0Z"/>
          <path class="cls-1" d="M242.3,188.2h63.3v204.1h-63.3v-204.1h0Z"/>
          <path class="cls-1" d="M336.4,188.2h191.8v50.4h-64.4v153.8h-63.1v-153.8h-64.4v-50.4h0Z"/>
          <path class="cls-1" d="M556.9,188.2h155.9v43.9h-92.6v35.6h79.1v41.2h-79.1v83.4h-63.4v-204.1h0Z"/>
          <path class="cls-1" d="M738.9,290.3c0-33.4,9.3-59.2,27.9-77.9,18.5-18.5,44.4-27.9,77.5-27.9s60.1,9.1,78.5,27.4c18.4,18.2,27.6,43.8,27.6,76.6s-4,43.4-12,58.6c-8,15.3-19.6,27.1-34.8,35.6-15.1,8.5-34.1,12.8-56.8,12.8s-42.1-3.6-57.1-11c-15.1-7.4-27.3-18.9-36.6-34.8-9.6-15.8-14.2-35.6-14.2-59.5h0ZM801.9,290.5c0,20.6,3.9,35.4,11.5,44.4s18.1,13.5,31.3,13.5,24-4.4,31.5-13.2c7.4-8.9,11.1-24.6,11.1-47.5s-3.9-33.2-11.6-42.1c-7.8-8.9-18.3-13.2-31.5-13.2s-22.9,4.5-30.6,13.5c-7.8,9.1-11.6,24-11.6,44.7h-.1Z"/>
          <path class="cls-1" d="M1079.4,188.2h63.1v153.9h98.4v50.3h-161.5v-204.1h0Z"/>
          <path class="cls-1" d="M1395,358.5h-71.6l-10,33.8h-64.4l76.8-204.1h68.8l76.8,204.1h-66l-10.2-33.8h-.2ZM1381.9,314.4l-22.5-73.4-22.3,73.4h44.8Z"/>
          <path class="cls-1" d="M1491.4,188.2h118c19.6,0,34.8,4.9,45.3,14.6,10.5,9.8,15.7,21.8,15.7,36.2s-3.8,22.4-11.2,31c-5,5.7-12.4,10.2-22,13.6,14.6,3.5,25.5,9.6,32.4,18.1,6.9,8.6,10.4,19.4,10.4,32.4s-2.5,20.1-7.4,28.5c-4.9,8.5-11.6,15.1-20.1,20-5.2,3.1-13.2,5.3-24,6.6-14.3,1.9-23.6,2.7-28.3,2.7h-108.9v-203.9h.1v.2ZM1555,268.2h27.4c9.9,0,16.6-1.8,20.5-5.1,3.9-3.4,5.7-8.2,5.7-14.6s-1.9-10.6-5.7-13.9c-3.9-3.4-10.5-5-20.1-5h-27.9v38.6h.1ZM1555,348.3h32.1c10.9,0,18.5-1.9,23-5.7,4.5-3.9,6.6-9,6.6-15.5s-2.3-10.9-6.6-14.5c-4.4-3.6-12.1-5.5-23.1-5.5h-32v41.2Z"/>
          <path class="cls-1" d="M1702,324.7l60-3.8c1.3,9.7,4,17.1,7.9,22.2,6.5,8.3,15.7,12.4,27.9,12.4s16-2.1,20.8-6.4c4.9-4.3,7.4-9.1,7.4-14.6s-2.4-10-7-14.3c-4.6-4.1-15.4-8.1-32.3-11.9-27.6-6.2-47.4-14.5-59.1-24.7-11.9-10.2-17.9-23.4-17.9-39.4s3-20.4,9.1-29.7c6.1-9.4,15.3-16.6,27.4-22,12.1-5.4,29-8,50.3-8s46,4.9,59.6,14.5c13.6,9.7,21.9,25.1,24.4,46.2l-59.5,3.5c-1.6-9.2-4.9-15.9-10-20-5-4.1-12-6.2-21-6.2s-12.9,1.5-16.6,4.6c-3.8,3.1-5.6,6.9-5.6,11.4s1.5,6.1,4.6,8.8c3,2.8,10,5.3,21.1,7.5,27.6,6,47.3,12,59.3,18,11.9,6.1,20.6,13.6,26,22.6,5.5,9,8.1,19.1,8.1,30.2s-3.6,25.1-10.9,36.2c-7.3,11-17.4,19.4-30.4,25.1-13,5.8-29.4,8.5-49.1,8.5-34.8,0-58.8-6.6-72.1-20-12.9-13.2-20.5-30.2-22.3-50.9v.2Z"/>
        </g>
        <g id="NXMPx7.tif">
          <g>
            <path class="cls-1" d="M1940.4,183.5h2.1c2.2.1,4.5.5,6.6,1.2,9.5,3.1,16.1,11.6,16.9,21.6.3,3.1-.1,6.2-1,9.3-1.6,5.3-4.8,9.5-9.1,12.7-3.5,2.6-7.5,4.1-11.9,4.5s-4.4.1-6.6-.2c-3.1-.5-6.1-1.6-8.9-3.2-4.2-2.6-7.5-6.2-9.6-10.9-1.1-2.5-1.9-5.1-2.1-7.9,0-.5-.1-1-.1-1.4v-2.2c.1-1.9.4-3.8.9-5.5,2.2-7.7,8-13.9,15.6-16.5,1.9-.6,3.9-1.1,5.9-1.2.5-.1,1-.1,1.4-.3h0ZM1941.4,188.7c-10.9,0-19.8,8.7-19.8,19.8s8.9,19.7,19.8,19.7,19.8-8.7,19.8-19.7-8.9-19.8-19.8-19.8Z"/>
            <path class="cls-1" d="M1937.3,220.7h-6.6v-25.9h10.6c1.7,0,3.4.1,5,.7,1,.4,2,.9,2.8,1.8.9.9,1.3,2,1.5,3.1.3,1.4.1,2.6-.3,3.9-.5,1.7-1.6,2.9-3.2,3.6-.5.2-.9.4-1.4.6.1,0,.3.1.5.1,1.3.5,2.1,1.2,2.8,2.4.7,1,1.3,2.1,1.7,3.3,1,2,2,4.1,3,6.1,0,.1.1.1.1.2h-6.9c-.1,0-.3-.1-.4-.2-1.1-2.1-2.1-4.4-3.2-6.5-.3-.5-.6-1-1-1.5-.6-.9-1.5-1.4-2.6-1.5-.9-.1-1.7-.1-2.8-.1.4,3.4.4,6.6.4,9.9h0ZM1937.3,206.3h3.1c.5,0,1-.1,1.5-.2,1-.2,1.7-.9,2-1.9.3-.9.3-1.6,0-2.5-.3-1-.9-1.6-1.7-1.9-.5-.1-1.1-.2-1.6-.2h-3.1c-.1,2.4-.1,4.5-.1,6.7h0Z"/>
          </g>
        </g>
      </g>
    </g>
  </g>
</svg>